<svg width="32" height="32" viewBox="0 0 32 32" fill="none" xmlns="http://www.w3.org/2000/svg">
  <defs>
    <radialGradient id="earthGradient" cx="0.5" cy="0.3" r="0.8">
      <stop offset="0%" stop-color="#4FC3F7"/>
      <stop offset="40%" stop-color="#29B6F6"/>
      <stop offset="70%" stop-color="#0288D1"/>
      <stop offset="100%" stop-color="#01579B"/>
    </radialGradient>
    <radialGradient id="spaceGradient" cx="0.5" cy="0.5" r="1">
      <stop offset="0%" stop-color="#1A237E"/>
      <stop offset="50%" stop-color="#0D47A1"/>
      <stop offset="100%" stop-color="#000051"/>
    </radialGradient>
    <linearGradient id="aiGradient" x1="0%" y1="0%" x2="100%" y2="100%">
      <stop offset="0%" stop-color="#E91E63"/>
      <stop offset="50%" stop-color="#9C27B0"/>
      <stop offset="100%" stop-color="#673AB7"/>
    </linearGradient>
  </defs>
  
  <!-- Space background -->
  <rect width="32" height="32" rx="6" fill="url(#spaceGradient)"/>
  
  <!-- Stars -->
  <circle cx="6" cy="8" r="0.5" fill="white" opacity="0.8"/>
  <circle cx="26" cy="6" r="0.3" fill="white" opacity="0.6"/>
  <circle cx="28" cy="14" r="0.4" fill="white" opacity="0.7"/>
  <circle cx="4" cy="24" r="0.3" fill="white" opacity="0.5"/>
  <circle cx="24" cy="28" r="0.5" fill="white" opacity="0.8"/>
  
  <!-- Earth -->
  <circle cx="16" cy="16" r="8" fill="url(#earthGradient)"/>
  
  <!-- Continents (simplified) -->
  <path d="M12 12 Q14 10 16 12 Q18 11 20 13 L18 15 Q16 14 14 15 L12 14 Z" fill="#2E7D32" opacity="0.8"/>
  <path d="M10 18 Q12 17 14 19 Q16 18 18 20 L16 22 Q14 21 12 22 L10 20 Z" fill="#388E3C" opacity="0.7"/>
  <ellipse cx="20" cy="18" rx="2" ry="1.5" fill="#4CAF50" opacity="0.6"/>
  
  <!-- Zoom out effect rings -->
  <circle cx="16" cy="16" r="10" fill="none" stroke="url(#aiGradient)" stroke-width="1" opacity="0.6"/>
  <circle cx="16" cy="16" r="12" fill="none" stroke="url(#aiGradient)" stroke-width="0.8" opacity="0.4"/>
  <circle cx="16" cy="16" r="14" fill="none" stroke="url(#aiGradient)" stroke-width="0.6" opacity="0.2"/>
  
  <!-- AI indicator dots -->
  <circle cx="8" cy="16" r="1" fill="url(#aiGradient)" opacity="0.8">
    <animate attributeName="opacity" values="0.3;1;0.3" dur="2s" repeatCount="indefinite"/>
  </circle>
  <circle cx="24" cy="16" r="1" fill="url(#aiGradient)" opacity="0.8">
    <animate attributeName="opacity" values="1;0.3;1" dur="2s" repeatCount="indefinite"/>
  </circle>
  <circle cx="16" cy="8" r="1" fill="url(#aiGradient)" opacity="0.8">
    <animate attributeName="opacity" values="0.6;1;0.6" dur="2s" repeatCount="indefinite" begin="0.5s"/>
  </circle>
  <circle cx="16" cy="24" r="1" fill="url(#aiGradient)" opacity="0.8">
    <animate attributeName="opacity" values="1;0.6;1" dur="2s" repeatCount="indefinite" begin="0.5s"/>
  </circle>
</svg>
